<svg width="36" height="36" viewBox="0 0 36 36" fill="none" xmlns="http://www.w3.org/2000/svg">
<path d="M18 0C8.05645 0 0 8.05645 0 18C0 27.9435 8.05645 36 18 36C27.9435 36 36 27.9435 36 18C36 8.05645 27.9435 0 18 0ZM22.1444 25.4105L15.7427 20.7581C15.5177 20.5911 15.3871 20.3298 15.3871 20.054V7.83871C15.3871 7.35968 15.779 6.96774 16.2581 6.96774H19.7419C20.221 6.96774 20.6129 7.35968 20.6129 7.83871V17.8331L25.2218 21.1863C25.6137 21.4694 25.6935 22.0137 25.4105 22.4056L23.3637 25.2218C23.0806 25.6065 22.5363 25.6935 22.1444 25.4105Z" fill="#00BCF8" fill-opacity="0.57"/>
</svg>
