<svg width="133" height="161" viewBox="0 0 133 161" fill="none" xmlns="http://www.w3.org/2000/svg">
<path d="M122.304 62.4779L68.0263 6.97815C64.5674 3.44138 58.8487 3.42492 55.2531 6.94138L7.51036 53.633C3.91473 57.1494 3.8039 62.867 7.2628 66.4038L61.5406 121.904C64.9995 125.44 70.7181 125.457 74.3137 121.94L122.056 75.2487C125.652 71.7322 125.763 66.0146 122.304 62.4779ZM38.907 81.3951L18.0309 60.049L52.7529 26.0915L73.629 47.4376L38.907 81.3951ZM68.1334 111.28L47.2574 89.9335L81.9794 55.976L102.855 77.322L68.1334 111.28Z" fill="#00BCF8"/>
<path d="M128.37 100.822L75.5528 155.694C70.7024 160.733 62.9498 160.629 58.237 155.461L4.9661 97.044C2.7029 94.5622 1.45768 91.2208 1.50438 87.7547L1.68317 74.4896L51.0219 128.595C55.2957 133.281 61.0266 135.908 67.1589 135.99C73.2912 136.073 79.0908 133.602 83.4894 129.032L128.528 82.2403L128.619 82.3396C133.332 87.5076 133.22 95.7823 128.37 100.822Z" fill="#0073FA"/>
</svg>
