<svg width="35" height="35" viewBox="0 0 35 35" fill="none" xmlns="http://www.w3.org/2000/svg">
<path d="M7.48285 16.6828L16.6825 7.48452L13.6665 4.46857L9.45021 8.68489C9.39993 8.73527 9.3402 8.77524 9.27446 8.80251C9.20871 8.82978 9.13823 8.84381 9.06706 8.84381C8.99588 8.84381 8.9254 8.82978 8.85966 8.80251C8.79391 8.77524 8.73419 8.73527 8.68391 8.68489L7.91761 7.9186C7.7057 7.70669 7.7057 7.36353 7.91761 7.1523L12.134 2.93598L9.83438 0.63573C8.98742 -0.211226 7.61478 -0.211226 6.76782 0.63573L0.635395 6.76813C-0.210882 7.61509 -0.211565 8.98772 0.635395 9.83467L7.48285 16.6828V16.6828ZM34.038 8.69856C35.3204 7.41617 35.3197 5.3374 34.038 4.055L30.9448 0.961798C29.6624 -0.320599 27.5829 -0.320599 26.2999 0.961798L23.154 4.10695L30.8922 11.8451L34.038 8.69856V8.69856ZM21.6071 5.65458L1.30462 25.9542L0.0222205 33.2986C-0.150726 34.2891 0.711956 35.1518 1.70315 34.9775L9.04826 33.6896L29.3452 13.392L21.6071 5.65458ZM34.3648 25.166L32.0652 22.8665L27.8489 27.0828C27.6369 27.2947 27.2938 27.2947 27.0826 27.0828L26.3163 26.3165C26.105 26.1046 26.105 25.7614 26.3163 25.5502L30.5326 21.3339L27.5153 18.3165L18.3156 27.5148L25.1658 34.3643C26.0128 35.2112 27.3854 35.2112 28.2323 34.3643L34.3648 28.2326C35.2117 27.3856 35.2117 26.013 34.3648 25.166Z" fill="#00BCF8" fill-opacity="0.57"/>
</svg>
