<svg width="41" height="33" viewBox="0 0 41 33" fill="none" xmlns="http://www.w3.org/2000/svg">
<path d="M31.8994 14.5626L18.3257 0.906146C17.749 0.325955 16.9669 4.29049e-06 16.1513 0H3.075C1.3767 0 0 1.3851 0 3.09375V16.2498C4.26449e-06 17.0703 0.323979 17.8572 0.900655 18.4374L14.4743 32.0938C15.6751 33.302 17.6221 33.3021 18.823 32.0938L31.8994 18.9378C33.1002 17.7296 33.1002 15.7708 31.8994 14.5626ZM7.175 10.3125C5.47671 10.3125 4.1 8.9274 4.1 7.21875C4.1 5.5101 5.47671 4.125 7.175 4.125C8.8733 4.125 10.25 5.5101 10.25 7.21875C10.25 8.9274 8.8733 10.3125 7.175 10.3125ZM40.0994 18.9378L27.023 32.0938C25.8222 33.302 23.8752 33.302 22.6744 32.0938L22.6513 32.0706L33.8019 20.852C34.8909 19.7564 35.4906 18.2997 35.4906 16.7502C35.4906 15.2007 34.8909 13.744 33.8019 12.6484L21.2301 0H24.3513C25.1669 4.29049e-06 25.949 0.325955 26.5257 0.906146L40.0994 14.5626C41.3002 15.7708 41.3002 17.7296 40.0994 18.9378Z" fill="#00BCF8" fill-opacity="0.57"/>
</svg>
