<svg width="44" height="37" viewBox="0 0 44 37" fill="none" xmlns="http://www.w3.org/2000/svg">
<path d="M11.9977 0.302271C11.9019 0.206462 11.7881 0.130442 11.6627 0.0785714C11.5374 0.0267009 11.403 0 11.2672 0C11.1315 0 10.9971 0.0267009 10.8718 0.0785714C10.7464 0.130442 10.6326 0.206462 10.5368 0.302271L5.06426 5.72429L3.11347 3.82988C3.01767 3.73407 2.90382 3.65805 2.77847 3.60618C2.65312 3.55431 2.51873 3.52761 2.383 3.52761C2.24728 3.52761 2.11288 3.55431 1.98753 3.60618C1.86218 3.65805 1.74834 3.73407 1.65253 3.82988L0.303314 5.17618C0.207173 5.27165 0.130892 5.3851 0.0788423 5.51002C0.0267929 5.63494 0 5.76887 0 5.90414C0 6.0394 0.0267929 6.17333 0.0788423 6.29825C0.130892 6.42317 0.207173 6.53662 0.303314 6.63209L4.39308 10.6915C4.59722 10.8849 4.86811 10.9928 5.14976 10.9928C5.43142 10.9928 5.70231 10.8849 5.90645 10.6915L7.24621 9.35381L13.4509 3.17129C13.6442 2.97848 13.7535 2.71748 13.7549 2.44491C13.7564 2.17235 13.6499 1.91021 13.4586 1.71537L11.9977 0.302271ZM11.9977 13.9357C11.9019 13.8399 11.7881 13.7638 11.6627 13.712C11.5374 13.6601 11.403 13.6334 11.2672 13.6334C11.1315 13.6334 10.9971 13.6601 10.8718 13.712C10.7464 13.7638 10.6326 13.8399 10.5368 13.9357L5.06426 19.3928L3.11347 17.5001C3.01767 17.4043 2.90382 17.3283 2.77847 17.2764C2.65312 17.2245 2.51873 17.1978 2.383 17.1978C2.24728 17.1978 2.11288 17.2245 1.98753 17.2764C1.86218 17.3283 1.74834 17.4043 1.65253 17.5001L0.303314 18.8438C0.207173 18.9393 0.130892 19.0528 0.0788423 19.1777C0.0267929 19.3026 0 19.4365 0 19.5718C0 19.7071 0.0267929 19.841 0.0788423 19.9659C0.130892 20.0908 0.207173 20.2043 0.303314 20.2998L4.38277 24.3678C4.58677 24.5611 4.85751 24.6689 5.13902 24.6689C5.42053 24.6689 5.69128 24.5611 5.89527 24.3678L7.24449 23.024L13.4492 16.8389C13.6418 16.6475 13.7506 16.3879 13.7521 16.1169C13.7535 15.8458 13.6474 15.5851 13.4569 15.3916L11.9977 13.9357ZM5.49996 28.7783C3.22347 28.7783 1.32425 30.6196 1.32425 32.8892C1.32425 35.1587 3.22519 37 5.49996 37C6.59398 37 7.64319 36.5669 8.41678 35.796C9.19037 35.025 9.62496 33.9794 9.62496 32.8892C9.62496 31.7989 9.19037 30.7533 8.41678 29.9824C7.64319 29.2114 6.59398 28.7783 5.49996 28.7783ZM42.625 30.1486H17.875C17.5103 30.1486 17.1606 30.293 16.9027 30.55C16.6448 30.8069 16.5 31.1555 16.5 31.5189V34.2594C16.5 34.6229 16.6448 34.9714 16.9027 35.2284C17.1606 35.4854 17.5103 35.6297 17.875 35.6297H42.625C42.9897 35.6297 43.3394 35.4854 43.5973 35.2284C43.8551 34.9714 44 34.6229 44 34.2594V31.5189C44 31.1555 43.8551 30.8069 43.5973 30.55C43.3394 30.293 42.9897 30.1486 42.625 30.1486ZM42.625 2.74308H17.875C17.5103 2.74308 17.1606 2.88745 16.9027 3.14442C16.6448 3.4014 16.5 3.74993 16.5 4.11335V6.85391C16.5 7.21733 16.6448 7.56586 16.9027 7.82284C17.1606 8.07982 17.5103 8.22418 17.875 8.22418H42.625C42.9897 8.22418 43.3394 8.07982 43.5973 7.82284C43.8551 7.56586 44 7.21733 44 6.85391V4.11335C44 3.74993 43.8551 3.4014 43.5973 3.14442C43.3394 2.88745 42.9897 2.74308 42.625 2.74308ZM42.625 16.4458H17.875C17.5103 16.4458 17.1606 16.5902 16.9027 16.8472C16.6448 17.1042 16.5 17.4527 16.5 17.8161V20.5567C16.5 20.9201 16.6448 21.2686 16.9027 21.5256C17.1606 21.7826 17.5103 21.927 17.875 21.927H42.625C42.9897 21.927 43.3394 21.7826 43.5973 21.5256C43.8551 21.2686 44 20.9201 44 20.5567V17.8161C44 17.4527 43.8551 17.1042 43.5973 16.8472C43.3394 16.5902 42.9897 16.4458 42.625 16.4458Z" fill="#00BCF8" fill-opacity="0.57"/>
</svg>
